# xmcd
#
# Track frame offsets: 
#        187
#        14902
#        23645
#        38562
#        50160
#        60317
#        77180
#        91737
#        104895
#        118617
#        132470
#        146710
#        160405
#        170130
#        182780
#
# Disc length: 2563 seconds
#
# Revision: 0
# Processed by: cddbd v1.5.2PL0 Copyright (c) Steve Scherf et al.
# Submitted via: ExactAudioCopy v0.95b4
#
DISCID=d80a010f
DTITLE=Stan Coster - Men Beyond The Black Stump
DYEAR=1996
DGENRE=Country
TTITLE0=By A Fire of Gidgee Coal
TTITLE1=Cunnamnulla Fella's Wedding
TTITLE2=Men Beyond The Black Stump
TTITLE3=Unto Death Do Us Part
TTITLE4=Sunshine
TTITLE5=Old Gilbert
TTITLE6=You Never Can Do Wrong
TTITLE7=It's The Only Home He Knows
TTITLE8=Blind Boy's Christmas Prayer
TTITLE9=Would I Do The Same Again
TTITLE10=Dusty's Den
TTITLE11=Your Country's Been Sold
TTITLE12=Leave The Formwork To The Finn
TTITLE13=You'll Do Me Mate
TTITLE14=The Great Australian Run
EXTD=
EXTT0=
EXTT1=
EXTT2=
EXTT3=
EXTT4=
EXTT5=
EXTT6=
EXTT7=
EXTT8=
EXTT9=
EXTT10=
EXTT11=
EXTT12=
EXTT13=
EXTT14=
PLAYORDER=
